# xmcd
#
# Track frame offsets:
#	150
#	11711
#	24560
#	54759
#	57958
#	82947
#	90964
#	122923
#	135607
#	147982
#	156482
#	170714
#	178551
#	188243
#	198527
#	210943
#	244974
#	256191
#	273032
#	289031
#	299778
#	305651
#
# Disc length: 4360 seconds
#
# Revision: 1
# Processed by: cddbd v1.5.2PL0 Copyright (c) Steve Scherf et al.
# Submitted via: audiograbber 1.83.01
#
DISCID=41110616
DTITLE=Norea - Audiosprachführer Norwegisch
DYEAR=1900
DGENRE=
TTITLE0=Norwegisch sprechen
TTITLE1=Bitten, danken, grüßen, entschuldigen
TTITLE2=Müssen, wollen und können
TTITLE3=Fragewörter
TTITLE4=Fragen und erkundigen
TTITLE5=Haben Sie?
TTITLE6=Hungrig, durstig, essen und trinken
TTITLE7=Familie
TTITLE8=Eigenschaften
TTITLE9=Körperliche Bedürfnisse und Zustände
TTITLE10=Sich nicht wohlfühlen, krank sein
TTITLE11=In der Not
TTITLE12=Richtung und Weg
TTITLE13=Unterkunft
TTITLE14=Zahlen und zählen
TTITLE15=Zeit, Stunden, Tage, Wochen, Jahre
TTITLE16=Maße, Bank
TTITLE17=Freunde gewinnen und Wertschätzung zeigen
TTITLE18=Von sich erzählen
TTITLE19=Auf Wiedersehen
TTITLE20=Schreiben Sie einmal!
TTITLE21=Telefonieren
EXTD=
EXTT0=
EXTT1=
EXTT2=
EXTT3=
EXTT4=
EXTT5=
EXTT6=
EXTT7=
EXTT8=
EXTT9=
EXTT10=
EXTT11=
EXTT12=
EXTT13=
EXTT14=
EXTT15=
EXTT16=
EXTT17=
EXTT18=
EXTT19=
EXTT20=
EXTT21=
PLAYORDER=
